<svg viewBox="0 0 256 256" xmlns="http://www.w3.org/2000/svg">
<defs><linearGradient id="g" x1="0" y1="0" x2="1" y2="1"><stop offset="0" stop-color="#25D366"/><stop offset="1" stop-color="#128C7E"/></linearGradient></defs>
<circle cx="128" cy="128" r="120" fill="url(#g)"/>
<path fill="#fff" d="M188 68a60 60 0 0 0-86 83l-6 25 25-6a60 60 0 0 0 67-102zm-43 95c-13 0-26-4-36-12-10-8-18-18-22-30-1-3 0-7 2-9l9-9c2-2 5-2 7 0l10 13c2 2 2 5 0 7l-4 5c4 8 11 15 20 19l5-4c2-2 5-2 7 0l13 10c2 2 2 5 0 7l-9 9c-2 2-5 3-9 2z"/>
</svg>